<svg version="1.1" xmlns="http://www.w3.org/2000/svg" xmlns:xlink="http://www.w3.org/1999/xlink" x="0px" y="0px"
	 viewBox="0 0 400 80" style="enable-background:new 0 0 400 80;" xml:space="preserve">
<g>
	<path fill="#808d93" d="M122.9,27.9c-1.9,0-3.7,0.2-5.4,0.6c-1.7,0.4-3.2,1-4.5,1.6l0.6-12.1c0-0.9-0.1-1.6-0.2-2.1c-0.1-0.5-0.6-0.8-1.4-1
		c-0.8-0.2-2.4-0.3-4.7-0.3c-3.7,0-5.9,0.1-6.6,0.4c-0.7,0.2-1,0.8-1,1.7c0,0.9,0.2,1.8,0.6,2.7c1,0,1.7,0.1,2.3,0.4
		c0.6,0.3,1,0.9,1.3,1.8c0.2,0.9,0.4,2.6,0.5,5.2c0.1,2.5,0.1,8.7,0.1,18.6c0,1.9,0,4.4-0.1,7.6c-0.1,3.2-0.1,5.2-0.1,6.1
		c0,1,0.2,1.6,0.7,1.9c0.5,0.3,1.7,0.5,3.6,0.5l1.4-1c0.8,0.3,1.9,0.7,3.3,1c1.4,0.3,3,0.4,4.8,0.4c5.1,0,9.1-1.6,12.1-4.8
		c3-3.2,4.5-8,4.5-14.3c0-5.4-1.1-9.2-3.2-11.4C129.3,29,126.5,27.9,122.9,27.9z M122.9,54.2c-1,1.2-2.4,1.8-4.2,1.8
		c-1,0-2-0.2-2.9-0.5c-0.9-0.3-1.7-0.7-2.2-1.3l0-11c0-3.2,0.2-5.4,0.6-6.5c0.4-1.1,1-1.9,1.8-2.5c0.8-0.5,1.8-0.8,2.9-0.8
		c1.8,0,3.1,0.9,4,2.7c0.9,1.8,1.3,4.8,1.4,9.1C124.3,50,123.8,53,122.9,54.2z"/>
	<path fill="#808d93" d="M167.9,55.3c-0.4-1.1-0.6-4-0.6-8.8v-8.6c0-3.8-1.1-6.3-3.3-7.6c-2.2-1.3-5.2-2-9-2c-3.2,0-6.2,0.2-9.1,0.5
		c-2.8,0.3-4.5,0.7-4.9,1c-0.4,0.3-0.7,0.7-0.7,1.3c0,0.9,0.3,1.9,0.9,3.2c0.6,1.3,1.1,2.1,1.7,2.6c0.6,0.5,1.5,0.6,2.9,0.3
		c1.4-0.3,2.1-0.5,2.2-0.6c0.1-0.1,0.6-0.8,1.4-2.3c1.2-0.3,2.3-0.4,3.3-0.4c1.8,0,3.2,0.6,4.1,1.8c0.9,1.2,1.5,3.5,1.7,6.9h-3.5
		c-5.4,0-9.4,0.9-11.9,2.7c-2.5,1.8-3.8,4.5-3.8,8.2c0,2.6,0.7,4.7,2.2,6.1c1.5,1.5,3.8,2.2,6.9,2.2c1.8,0,3.8-0.3,5.9-1
		s3.9-1.4,5.6-2.2c1.1,1.5,1.8,2.3,2.3,2.5c0.5,0.2,1.2,0.3,2.1,0.3c2,0,3.5-0.3,4.7-0.8c1.2-0.5,1.7-1.3,1.7-2.2
		c0-0.6-0.2-1.2-0.5-1.8C169,56.8,168.3,56.4,167.9,55.3z M158.4,49.5c0,1.5-0.1,2.7-0.4,3.6c-0.3,0.9-0.9,1.6-1.8,2.1
		c-0.9,0.5-1.9,0.7-3.1,0.7c-1.5,0-2.6-0.4-3.4-1.1c-0.8-0.7-1.2-1.9-1.2-3.3c0-1.7,0.4-2.8,1.2-3.5c0.8-0.6,2.1-0.9,3.9-0.9
		c1.6,0,3.2,0.2,4.8,0.5V49.5z"/>
	<path fill="#808d93" d="M192.2,41.7c-3.1-1.1-5.1-2-5.9-2.7s-1.3-1.6-1.3-2.5c0-0.9,0.3-1.6,1-2.1c0.6-0.5,1.6-0.7,2.9-0.7c2.5,0,6.1,1,10.8,3.1
		c1.2-1.6,1.9-3.1,1.9-4.7c0-1.5-0.9-2.5-2.7-3.1c-1.8-0.6-4.3-0.9-7.6-0.9c-4.8,0-8.5,0.9-11.3,2.8c-2.7,1.8-4.1,4.3-4.1,7.4
		c0,2.2,0.7,4,2,5.4c1.4,1.4,3.6,2.7,6.8,3.9c3,1.1,5.1,2.1,6.4,2.8c1.3,0.7,2,1.7,2,3c0,1.1-0.4,1.8-1.1,2.3
		c-0.8,0.5-1.8,0.7-3.2,0.7c-3.3,0-7.2-0.9-11.5-2.8c-1.1,1.3-1.6,2.6-1.6,4c0,1.8,0.9,3,2.7,3.6c1.8,0.6,4.8,0.9,9,0.9
		c4.5,0,8.1-0.9,10.8-2.6c2.7-1.7,4-4.2,4-7.5c0-2.4-0.8-4.4-2.3-5.8C198.4,44.3,195.8,42.9,192.2,41.7z"/>
	<path fill="#808d93" d="M226,55.9c-3.1,0-5.2-0.8-6.4-2.4c-1.2-1.6-1.9-3.8-1.9-6.7h12.1c2.9,0,4.8-0.5,5.7-1.4c0.9-0.9,1.3-2.5,1.3-4.7
		c0-4.4-1-7.7-3.1-9.7c-2-2.1-5.3-3.1-9.8-3.1c-5.1,0-9.1,1.6-12.1,4.8c-3,3.2-4.5,7.7-4.5,13.4c0,5.5,1.3,9.4,4,11.8
		c2.7,2.4,7,3.6,12.9,3.6c3.4,0,6.4-0.3,9-1c2.6-0.7,3.8-1.9,3.8-3.6c0-1.3-0.6-2.5-1.7-3.6C232.1,55,229,55.9,226,55.9z
		 M218.9,35.4c0.8-1.3,2.1-2,3.7-2c1.5,0,2.7,0.5,3.5,1.6c0.8,1.1,1.3,2.6,1.3,4.5c0,0.8-0.1,1.3-0.3,1.7c-0.2,0.3-1,0.6-2.2,0.7
		c-1.3,0.1-3.1,0.2-5.5,0.2h-1.7C217.6,39,218.1,36.7,218.9,35.4z"/>
	<path fill="#808d93" d="M255.1,56.5c-0.1-2.8-0.2-7.3-0.2-13.5V18c0-0.9-0.1-1.6-0.2-2.1c-0.1-0.5-0.6-0.8-1.4-1c-0.8-0.2-2.4-0.3-4.7-0.3
		c-3.7,0-5.9,0.1-6.6,0.4c-0.7,0.2-1,0.8-1,1.7c0,0.9,0.2,1.8,0.6,2.7c1,0,1.7,0.1,2.3,0.4c0.6,0.3,1,0.9,1.3,1.8
		c0.2,0.9,0.4,2.6,0.5,5.2c0.1,2.5,0.1,8.7,0.1,18.6c0,4.7-0.1,8.5-0.2,11.2h-2.7c-0.7,0-1.2,0.1-1.5,0.4c-0.3,0.3-0.5,0.8-0.5,1.4
		c0,0.8,0.2,1.7,0.6,2.6h15.9c0.9,0,1.5-0.2,1.8-0.5c0.3-0.3,0.5-0.8,0.5-1.6c0-0.9-0.2-1.7-0.6-2.4H255.1z"/>
	<path fill="#808d93" d="M291.8,55.3c-0.4-1.1-0.6-4-0.6-8.8v-8.6c0-3.8-1.1-6.3-3.3-7.6c-2.2-1.3-5.2-2-9-2c-3.2,0-6.2,0.2-9.1,0.5
		c-2.8,0.3-4.5,0.7-4.9,1c-0.4,0.3-0.7,0.7-0.7,1.3c0,0.9,0.3,1.9,0.9,3.2c0.6,1.3,1.1,2.1,1.7,2.6c0.6,0.5,1.5,0.6,2.9,0.3
		c1.4-0.3,2.1-0.5,2.2-0.6c0.1-0.1,0.6-0.8,1.4-2.3c1.2-0.3,2.3-0.4,3.3-0.4c1.8,0,3.2,0.6,4.1,1.8c0.9,1.2,1.5,3.5,1.7,6.9h-3.5
		c-5.4,0-9.4,0.9-11.9,2.7c-2.5,1.8-3.8,4.5-3.8,8.2c0,2.6,0.7,4.7,2.2,6.1c1.5,1.5,3.8,2.2,6.9,2.2c1.8,0,3.8-0.3,5.9-1
		s3.9-1.4,5.6-2.2c1.1,1.5,1.8,2.3,2.3,2.5c0.5,0.2,1.2,0.3,2.1,0.3c2,0,3.5-0.3,4.7-0.8c1.2-0.5,1.7-1.3,1.7-2.2
		c0-0.6-0.2-1.2-0.5-1.8C293,56.8,292.3,56.4,291.8,55.3z M282.4,49.5c0,1.5-0.1,2.7-0.4,3.6c-0.3,0.9-0.9,1.6-1.8,2.1
		c-0.9,0.5-1.9,0.7-3.1,0.7c-1.5,0-2.6-0.4-3.4-1.1c-0.8-0.7-1.2-1.9-1.2-3.3c0-1.7,0.4-2.8,1.2-3.5c0.8-0.6,2.1-0.9,3.9-0.9
		c1.6,0,3.2,0.2,4.8,0.5V49.5z"/>
	<path fill="#808d93" d="M321.5,28.8c-0.8,0-1.3,0.2-1.6,0.6c-0.3,0.4-0.5,1-0.5,1.8c0,0.8,0.2,1.7,0.6,2.4h1.8c-0.2,1.9-1.1,6.1-2.7,12.5
		c-1.6,6.4-2.5,9.7-2.8,9.7c-0.3,0-0.9-2.4-1.9-7.1c-1-4.8-1.8-8.9-2.4-12.4c-0.6-3.5-1.1-5.6-1.4-6.3c-0.3-0.7-0.8-1.2-1.6-1.4
		c-0.8-0.3-2.2-0.4-4.2-0.4c-3,0-5,0.1-5.9,0.3c-0.9,0.2-1.3,0.8-1.3,1.8c0,0.8,0.2,1.7,0.6,2.7c1,0,1.8,0.1,2.2,0.3
		c0.5,0.2,0.8,0.6,1.1,1.4c0.3,0.7,0.6,1.9,1,3.4c0.4,1.6,1.5,5.8,3.2,12.7c1.7,6.9,2.7,10.4,2.9,10.5c0.3,0.1,2.1,0.2,5.5,0.1
		c-1.7,5.4-3.6,8.1-5.7,8.2c-2.1,0.1-5.5-0.3-10.1-1.3c-0.9,1.2-1.4,2.4-1.4,3.8c0,1.2,0.5,2,1.4,2.5c0.9,0.5,2.8,0.7,5.6,0.7
		c2.8,0,5.3-0.3,7.5-0.8c2.3-0.5,4.2-1.8,5.9-3.7c1.7-1.9,4.1-8.2,7.1-18.7c3.1-10.6,5-16.7,5.7-18.5h0.6c0.9,0,1.6-0.2,1.9-0.5
		c0.4-0.3,0.6-1,0.6-2c0-0.8-0.2-1.6-0.6-2.3H321.5z"/>
	<path fill="#808d93" d="M354.8,55.9c-3.1,0-5.2-0.8-6.4-2.4c-1.2-1.6-1.9-3.8-1.9-6.7h12.1c2.9,0,4.8-0.5,5.7-1.4c0.9-0.9,1.3-2.5,1.3-4.7
		c0-4.4-1-7.7-3.1-9.7c-2-2.1-5.3-3.1-9.8-3.1c-5.1,0-9.1,1.6-12.1,4.8c-3,3.2-4.5,7.7-4.5,13.4c0,5.5,1.3,9.4,4,11.8
		c2.7,2.4,7,3.6,12.9,3.6c3.4,0,6.4-0.3,9-1c2.6-0.7,3.8-1.9,3.8-3.6c0-1.3-0.6-2.5-1.7-3.6C360.9,55,357.8,55.9,354.8,55.9z
		 M347.7,35.4c0.8-1.3,2.1-2,3.7-2c1.5,0,2.7,0.5,3.5,1.6c0.8,1.1,1.3,2.6,1.3,4.5c0,0.8-0.1,1.3-0.3,1.7c-0.2,0.3-1,0.6-2.2,0.7
		c-1.3,0.1-3.1,0.2-5.5,0.2h-1.7C346.4,39,346.9,36.7,347.7,35.4z"/>
	<path fill="#808d93" d="M397,28.2c-0.3-0.2-0.8-0.3-1.6-0.3c-1.7,0-3.6,0.3-5.9,0.8c-2.2,0.6-4.7,1.7-7.4,3.3c0.1-1.6,0.1-2.9,0-3.8
		c-6.6,0.2-10.2,0.4-10.8,0.7c-0.6,0.2-0.9,0.7-0.9,1.5c0,0.9,0.2,1.7,0.6,2.6c1.4,0,2.4,0.6,3,1.7c0.6,1.1,0.9,4.7,0.9,10.8
		c0,4.2-0.1,7.9-0.2,11.1h-2.4c-0.7,0-1.2,0.1-1.5,0.4c-0.3,0.3-0.5,0.8-0.5,1.4c0,0.8,0.2,1.7,0.6,2.6h16.6c0.9,0,1.5-0.2,1.8-0.5
		c0.3-0.3,0.5-0.8,0.5-1.6c0-0.9-0.2-1.7-0.6-2.4h-5.1c-0.1-3.2-0.2-7-0.2-11.4c0-4.8,0.4-7.8,1.3-9c0.9-1.2,2.1-1.7,3.7-1.7
		c1,1.4,1.7,2.1,1.8,2.2c0.2,0.1,0.9,0,2-0.1c1.2-0.2,2-0.4,2.5-0.8c0.5-0.4,1-1.2,1.3-2.5c0.4-1.3,0.5-2.5,0.5-3.7
		C397.4,28.8,397.3,28.3,397,28.2z"/>
	<path fill="#808d93" d="M71.9,0H8.1C3.6,0,0,3.6,0,8.1v63.8C0,76.4,3.6,80,8.1,80h63.8c4.5,0,8.1-3.6,8.1-8.1V8.1C80,3.6,76.4,0,71.9,0z
		 M33.2,13.5c0-0.7,0.6-1.3,1.3-1.4c1.8-0.2,3.7-0.2,5.5-0.2c1.9,0,3.7,0.1,5.5,0.2c0.7,0.1,1.3,0.7,1.3,1.4v4.3
		c0,0.8-0.7,1.5-1.5,1.4c-1.7-0.2-3.5-0.2-5.3-0.2c-1.8,0-3.5,0.1-5.3,0.2c-0.8,0.1-1.5-0.6-1.5-1.4V13.5z M18.6,58.9l-1.4,4.2
		c-0.2,0.7-1,1.1-1.7,0.8c-1.6-0.6-3.2-1.2-4.8-1.9c-0.6-0.3-0.9-0.9-0.7-1.6l1.3-4.3c0.2-0.8,1.1-1.1,1.8-0.8
		c1.5,0.7,3.1,1.3,4.7,1.9C18.5,57.5,18.8,58.2,18.6,58.9z M52.3,67.1c-4,0.7-8.1,1.1-12.3,1.1c-4.2,0-8.3-0.4-12.3-1.1
		c-0.7-0.1-1.2-0.8-1.1-1.5c0.1-1,0.3-2.5,0.6-4.3c0.1-0.8,0.8-1.3,1.6-1.2c3.7,0.6,7.5,1,11.3,1c3.8,0,7.6-0.3,11.3-1
		c0.8-0.1,1.5,0.4,1.6,1.2c0.2,1.8,0.4,3.3,0.6,4.3C53.6,66.3,53.1,67,52.3,67.1z M59.6,53.5L55,39.8c-0.4-1.3-2.3-1.1-2.5,0.2
		c-0.3,1.9-0.6,4.4-0.6,7.6c0,2.6,0.2,5.4,0.4,8c0.1,0.7-0.4,1.3-1.1,1.4c-3.7,0.7-7.4,1-11.3,1c-3.8,0-7.6-0.3-11.3-1
		c-0.7-0.1-1.1-0.7-1.1-1.4c0.2-2.6,0.4-5.4,0.4-8c0-3.3-0.2-5.8-0.6-7.6c-0.2-1.3-2.1-1.5-2.5-0.2l-4.6,13.7
		c-0.2,0.7-1,1.1-1.7,0.8c-1.7-0.6-3.4-1.3-5-2.1c-0.6-0.3-0.9-0.9-0.7-1.6l6.3-21.1c3.6-7.5,15.1-7.6,20.7-7.6
		c5.6,0,17.1,0.2,20.7,7.6L67,50.6c0.2,0.6-0.1,1.3-0.7,1.6c-1.6,0.8-3.3,1.5-5,2.1C60.6,54.6,59.8,54.2,59.6,53.5z M69.2,62
		c-1.6,0.7-3.1,1.3-4.7,1.9c-0.7,0.3-1.5-0.1-1.7-0.8l-1.4-4.2c-0.2-0.7,0.1-1.4,0.8-1.6c1.6-0.6,3.2-1.2,4.7-1.9
		c0.7-0.3,1.6,0,1.8,0.8l1.3,4.3C70.1,61,69.8,61.7,69.2,62z"/>
</g>
</svg>
