<svg version="1.1" xmlns="http://www.w3.org/2000/svg" xmlns:xlink="http://www.w3.org/1999/xlink" x="0px" y="0px"
	 viewBox="0 0 128 128" style="enable-background:new 0 0 128 128;" xml:space="preserve">
<g>
	<path fill="#a63f44" d="M73.3,102.9c0.8-2,1.1-4.5,0.9-7.4c-0.4-4.7-2.4-8-5.9-10.1c-3.5-2-8.3-2.8-14.5-2.3l-21,1.9l2.6,29l21-1.9
		c2.6-0.2,5-0.7,7.3-1.3c2.3-0.6,4.2-1.6,5.9-2.9C71.2,106.6,72.5,105,73.3,102.9z"/>
	<path fill="#a63f44" d="M68,68.4c0.5-1.5,0.7-3.2,0.6-4.9c-0.8-9.1-6.7-13.1-17.6-12.2l-21.1,1.9l2.4,25.9l21.1-1.9c2.8-0.2,5.2-0.8,7.1-1.6
		c2-0.8,3.6-1.9,4.8-3.1C66.6,71.4,67.5,70,68,68.4z"/>
	<polygon fill="#b34d52" points="36.7,128 36.8,128 91.2,128 91.3,128 92,120.1 36,120.1 	"/>
	<path fill="#b34d52" d="M116.9,25c-0.3-2.1-1.8-3.9-3.8-4.5l-30.6-8.7c0,0,0,0,0,0L80,3.7C79.3,1.5,77.3,0,75.1,0H52.9c-2.3,0-4.2,1.5-4.9,3.7
		l-2.5,8.2c0,0,0,0,0,0l-30.6,8.7c-2,0.6-3.5,2.3-3.8,4.5L0,112.2c0,0,0,0,0,0l11.5,2.6c0,0,0,0,0,0l12.9-65
		c0.2-1.4,1.3-2.2,2.5-2.2l0,0l23.6-2.1c3-0.3,6-0.2,8.9,0.1c2.9,0.3,5.4,1.1,7.7,2.3c2.3,1.2,4.1,2.9,5.6,5
		c1.5,2.2,2.4,4.9,2.7,8.3c0.2,1.9,0,3.8-0.4,5.6c-0.4,1.8-1.2,3.6-2.2,5.1c-1,1.6-2.2,2.9-3.6,4.1c-1.4,1.1-3.1,2-4.9,2.6l0,0.2
		c4.7,0.2,8.6,1.8,11.7,4.8c3.1,3,4.8,6.8,5.2,11.6c0.1,1.2,0.1,2.5,0,3.9c-0.1,1.5-0.3,3-0.8,4.6c-0.5,1.6-1.2,3.2-2.2,4.8
		c-1,1.6-2.4,3-4.3,4.3c-1,0.7-2.2,1.4-3.6,2h22.2L98.4,50c0.3-3.1,4.7-3.2,5.2-0.2l12.9,65c0,0,0,0,0,0l11.5-2.6c0,0,0,0,0,0
		L116.9,25z"/>
</g>
</svg>
