<?xml version="1.0" encoding="utf-8"?>
<!-- Generator: Adobe Illustrator 26.3.1, SVG Export Plug-In . SVG Version: 6.00 Build 0)  -->
<svg version="1.1" id="Layer_1" xmlns="http://www.w3.org/2000/svg" xmlns:xlink="http://www.w3.org/1999/xlink" x="0px" y="0px"
	 viewBox="0 0 1280 720" style="enable-background:new 0 0 1280 720;" xml:space="preserve">
<style type="text/css">
	.st0{fill:#1F242C;}
	.st1{fill:#FFFFFF;}
	.st2{fill:#225580;}
</style>
<rect class="st0" width="1280" height="720"/>
<g>
	<path class="st1" d="M465,115h350c38.7,0,70,31.3,70,70v350c0,38.7-31.3,70-70,70H465c-38.7,0-70-31.3-70-70V185
		C395,146.3,426.3,115,465,115z"/>
	<path class="st2" d="M863.3,80H416.7c-31.5,0-56.7,25.2-56.7,56.7v446.6c0,31.5,25.2,56.7,56.7,56.7h446.6
		c31.5,0,56.7-25.2,56.7-56.7V136.7C920,105.2,894.8,80,863.3,80z M592.4,174.5c0-4.9,4.2-9.1,9.1-9.8c12.6-1.4,25.9-1.4,38.5-1.4
		c13.3,0,25.9,0.7,38.5,1.4c4.9,0.7,9.1,4.9,9.1,9.8v30.1c0,5.6-4.9,10.5-10.5,9.8c-11.9-1.4-24.5-1.4-37.1-1.4s-24.5,0.7-37.1,1.4
		c-5.6,0.7-10.5-4.2-10.5-9.8V174.5z M490.2,492.3l-9.8,29.4c-1.4,4.9-7,7.7-11.9,5.6c-11.2-4.2-22.4-8.4-33.6-13.3
		c-4.2-2.1-6.3-6.3-4.9-11.2l9.1-30.1c1.4-5.6,7.7-7.7,12.6-5.6c10.5,4.9,21.7,9.1,32.9,13.3C489.5,482.5,491.6,487.4,490.2,492.3z
		 M726.1,549.7c-28,4.9-56.7,7.7-86.1,7.7c-29.4,0-58.1-2.8-86.1-7.7c-4.9-0.7-8.4-5.6-7.7-10.5c0.7-7,2.1-17.5,4.2-30.1
		c0.7-5.6,5.6-9.1,11.2-8.4c25.9,4.2,52.5,7,79.1,7s53.2-2.1,79.1-7c5.6-0.7,10.5,2.8,11.2,8.4c1.4,12.6,2.8,23.1,4.2,30.1
		C735.2,544.1,731.7,549,726.1,549.7z M777.2,454.5L745,358.6c-2.8-9.1-16.1-7.7-17.5,1.4c-2.1,13.3-4.2,30.8-4.2,53.2
		c0,18.2,1.4,37.8,2.8,56c0.7,4.9-2.8,9.1-7.7,9.8c-25.9,4.9-51.8,7-79.1,7c-26.6,0-53.2-2.1-79.1-7c-4.9-0.7-7.7-4.9-7.7-9.8
		c1.4-18.2,2.8-37.8,2.8-56c0-23.1-1.4-40.6-4.2-53.2c-1.4-9.1-14.7-10.5-17.5-1.4l-32.2,95.9c-1.4,4.9-7,7.7-11.9,5.6
		c-11.9-4.2-23.8-9.1-35-14.7c-4.2-2.1-6.3-6.3-4.9-11.2l44.1-147.7c25.2-52.5,105.7-53.2,144.9-53.2c39.2,0,119.7,1.4,144.9,53.2
		L829,434.2c1.4,4.2-0.7,9.1-4.9,11.2c-11.2,5.6-23.1,10.5-35,14.7C784.2,462.2,778.6,459.4,777.2,454.5z M844.4,514
		c-11.2,4.9-21.7,9.1-32.9,13.3c-4.9,2.1-10.5-0.7-11.9-5.6l-9.8-29.4c-1.4-4.9,0.7-9.8,5.6-11.2c11.2-4.2,22.4-8.4,32.9-13.3
		c4.9-2.1,11.2,0,12.6,5.6l9.1,30.1C850.7,507,848.6,511.9,844.4,514z"/>
</g>
</svg>
